<svg width="219" height="210" viewBox="0 0 219 210" fill="none" xmlns="http://www.w3.org/2000/svg">
<ellipse cx="45.3894" cy="44.8075" rx="45.3894" ry="44.8075" transform="matrix(1 0 0 -1 66.9204 148.97)" fill="white" fill-opacity="0.5"/>
<path d="M146.659 104.47C146.659 85.8822 131.378 70.7794 112.486 70.7794C93.5934 70.7794 78.313 85.8822 78.313 104.47C78.313 123.057 93.5934 138.16 112.486 138.16C131.378 138.16 146.659 123.057 146.659 104.47Z" stroke="white" stroke-opacity="0.5" stroke-width="3"/>
<path d="M163.218 103.917C163.218 76.0691 140.327 53.4588 112.046 53.4588C83.7658 53.4588 60.875 76.0691 60.875 103.917C60.875 131.766 83.7658 154.376 112.046 154.376C140.327 154.376 163.218 131.766 163.218 103.917Z" stroke="white" stroke-opacity="0.5" stroke-width="3"/>
<path d="M181.413 103.445C181.413 66.2053 150.805 35.9818 113.004 35.9818C75.2032 35.9818 44.5947 66.2053 44.5947 103.445C44.5947 140.685 75.2032 170.909 113.004 170.909C150.805 170.909 181.413 140.685 181.413 103.445Z" stroke="white" stroke-opacity="0.5" stroke-width="3"/>
<path d="M199.13 104.154C199.13 57.4297 159.663 19.4494 110.849 19.4494C62.0349 19.4494 22.5684 57.4297 22.5684 104.154C22.5684 150.878 62.0349 188.858 110.849 188.858C159.663 188.858 199.13 150.878 199.13 104.154Z" stroke="white" stroke-opacity="0.5" stroke-width="3"/>
<path d="M216.847 104.862C216.847 47.8332 168.697 1.5 109.173 1.5C49.6494 1.5 1.5 47.8332 1.5 104.862C1.5 161.891 49.6494 208.224 109.173 208.224C168.697 208.224 216.847 161.891 216.847 104.862Z" stroke="white" stroke-opacity="0.5" stroke-width="3"/>
</svg>
