<svg width="563" height="296" viewBox="0 0 563 296" fill="none" xmlns="http://www.w3.org/2000/svg">
<path d="M419.716 151.05C403.221 151.05 381.642 144.479 366.856 151.05C357.994 154.989 351.384 167.978 345.417 175.271C335.573 187.302 333.909 224.711 349.345 233.532C372.459 246.74 387.907 254.152 415.461 254.152C424.18 254.152 434.943 255.878 443.446 253.988C458.227 250.704 469.39 243.373 483.213 239.423C502.439 233.93 525.433 208.499 533.291 190.818C542.449 170.213 556.857 138.286 556.857 115.701C556.857 85.8749 546.228 61.2526 524.29 42.0573C512.498 31.7393 500.059 26.6348 486.159 20.7823C464.007 11.455 442.193 13.9942 419.716 8.9993C405.699 5.88449 391.623 6.70815 377.166 6.70815C365.819 6.70815 346.276 2.45987 335.925 7.36276C310.467 19.4217 280.077 25.3567 256.39 40.5844C229.57 57.8259 222.654 82.5982 206.312 109.155C191.728 132.853 176.854 162.479 176.854 190.818C176.854 249.193 144.938 289.501 83.2444 289.501C57.2614 289.501 37.2535 282.498 23.6746 258.734C14.9987 243.552 6 231.49 6 212.911" stroke="white" stroke-width="12" stroke-linecap="round" stroke-dasharray="1 30"/>
</svg>
